<svg xmlns="http://www.w3.org/2000/svg" width="300" height="260" viewBox="0 0 300 260"><title>Illustration of instrument</title><ellipse cx="150" cy="238" rx="74" ry="8" fill="#233e2e" opacity=".07"/><g transform="rotate(5 150 130)"><g transform="rotate(-15 150 130)"><rect x="66" y="105" width="168" height="56" rx="9" fill="#b1b7ab"/><rect x="68" y="124" width="164" height="29" rx="3" fill="#555847"/><rect x="75" y="129" width="10" height="17" rx="2" fill="#252e29"/><rect x="91" y="129" width="10" height="17" rx="2" fill="#252e29"/><rect x="107" y="129" width="10" height="17" rx="2" fill="#252e29"/><rect x="123" y="129" width="10" height="17" rx="2" fill="#252e29"/><rect x="139" y="129" width="10" height="17" rx="2" fill="#252e29"/><rect x="155" y="129" width="10" height="17" rx="2" fill="#252e29"/><rect x="171" y="129" width="10" height="17" rx="2" fill="#252e29"/><rect x="187" y="129" width="10" height="17" rx="2" fill="#252e29"/><rect x="203" y="129" width="10" height="17" rx="2" fill="#252e29"/><rect x="219" y="129" width="10" height="17" rx="2" fill="#252e29"/></g></g></svg>